<svg width="50" height="50" viewBox="0 0 50 50" fill="none" xmlns="http://www.w3.org/2000/svg">
<mask id="mask0_0_488" style="mask-type:alpha" maskUnits="userSpaceOnUse" x="0" y="0" width="50" height="50">
<rect width="50" height="50" fill="#D9D9D9"/>
</mask>
<g mask="url(#mask0_0_488)">
<path d="M25.0007 45.8337C24.0979 45.8337 23.2819 45.6166 22.5527 45.1826C21.8236 44.7486 21.2507 44.167 20.834 43.4378C19.6882 43.4378 18.7072 43.0298 17.8913 42.2139C17.0753 41.3979 16.6673 40.417 16.6673 39.2712V31.8753C14.6187 30.5212 12.9781 28.733 11.7454 26.5107C10.5128 24.2885 9.89648 21.8753 9.89648 19.2712C9.89648 15.0698 11.3635 11.5021 14.2975 8.56803C17.2316 5.63401 20.7993 4.16699 25.0007 4.16699C29.202 4.16699 32.7698 5.63401 35.7038 8.56803C38.6378 11.5021 40.1048 15.0698 40.1048 19.2712C40.1048 21.9448 39.4885 24.3753 38.2559 26.5628C37.0232 28.7503 35.3826 30.5212 33.334 31.8753V39.2712C33.334 40.417 32.926 41.3979 32.11 42.2139C31.2941 43.0298 30.3132 43.4378 29.1673 43.4378C28.7507 44.167 28.1777 44.7486 27.4486 45.1826C26.7194 45.6166 25.9034 45.8337 25.0007 45.8337ZM20.834 39.2712H29.1673V37.3962H20.834V39.2712ZM20.834 35.3128H29.1673V33.3337H20.834V35.3128ZM20.4173 29.167H23.4382V23.542L18.8548 18.9587L21.0423 16.7712L25.0007 20.7295L28.959 16.7712L31.1465 18.9587L26.5632 23.542V29.167H29.584C31.459 28.2642 32.9868 26.9361 34.1673 25.1826C35.3479 23.4291 35.9382 21.4587 35.9382 19.2712C35.9382 16.2156 34.8791 13.6288 32.7611 11.5107C30.643 9.39269 28.0562 8.33366 25.0007 8.33366C21.9451 8.33366 19.3583 9.39269 17.2402 11.5107C15.1222 13.6288 14.0632 16.2156 14.0632 19.2712C14.0632 21.4587 14.6534 23.4291 15.834 25.1826C17.0145 26.9361 18.5423 28.2642 20.4173 29.167Z" fill="#1F999B"/>
</g>
</svg>
