<svg width="50" height="50" viewBox="0 0 50 50" fill="none" xmlns="http://www.w3.org/2000/svg">
<mask id="mask0_0_443" style="mask-type:alpha" maskUnits="userSpaceOnUse" x="0" y="0" width="50" height="50">
<rect width="50" height="50" fill="#F48C06"/>
</mask>
<g mask="url(#mask0_0_443)">
<path d="M25.5729 32.3441C28.0035 32.3441 30.0694 31.5628 31.7708 30.0003C33.4722 28.4378 34.3229 26.5455 34.3229 24.3232C34.3229 22.3441 33.6892 20.6687 32.4219 19.2972C31.1545 17.9257 29.6181 17.2399 27.8125 17.2399C26.1806 17.2399 24.8003 17.7607 23.6719 18.8024C22.5434 19.8441 21.9792 21.1288 21.9792 22.6566C21.9792 23.3163 22.1094 23.9587 22.3698 24.5837C22.6302 25.2087 23.0035 25.7816 23.4896 26.3024L26.4583 23.3337C26.3542 23.2642 26.276 23.1774 26.224 23.0732C26.1719 22.9691 26.1458 22.8475 26.1458 22.7087C26.1458 22.3267 26.3021 22.0229 26.6146 21.7972C26.9271 21.5715 27.3264 21.4587 27.8125 21.4587C28.5069 21.4587 29.0799 21.7451 29.5312 22.318C29.9826 22.891 30.2083 23.5767 30.2083 24.3753C30.2083 25.4517 29.7656 26.3632 28.8802 27.1097C27.9948 27.8562 26.9097 28.2295 25.625 28.2295C23.9931 28.2295 22.6128 27.5698 21.4844 26.2503C20.3559 24.9309 19.7917 23.3163 19.7917 21.4066C19.7917 20.3996 19.9826 19.4361 20.3646 18.516C20.7465 17.5958 21.2847 16.7885 21.9792 16.0941L19.0104 13.1253C17.8993 14.2017 17.0486 15.4517 16.4583 16.8753C15.8681 18.2989 15.5729 19.792 15.5729 21.3545C15.5729 24.41 16.5451 27.0055 18.4896 29.141C20.434 31.2764 22.7951 32.3441 25.5729 32.3441ZM12.5 45.8337V36.8753C10.5208 35.0698 8.98438 32.9604 7.89062 30.5472C6.79687 28.134 6.25 25.5906 6.25 22.917C6.25 17.7087 8.07292 13.2816 11.7188 9.63574C15.3646 5.98991 19.7917 4.16699 25 4.16699C29.3403 4.16699 33.1858 5.44303 36.5365 7.99512C39.8872 10.5472 42.066 13.8719 43.0729 17.9691L45.7812 28.6462C45.9549 29.3059 45.8333 29.9048 45.4167 30.443C45 30.9812 44.4444 31.2503 43.75 31.2503H39.5833V37.5003C39.5833 38.6462 39.1753 39.6271 38.3594 40.443C37.5434 41.259 36.5625 41.667 35.4167 41.667H31.25V45.8337H27.0833V37.5003H35.4167V27.0837H41.0417L39.0625 19.0107C38.2639 15.851 36.5625 13.2816 33.9583 11.3024C31.3542 9.32324 28.3681 8.33366 25 8.33366C20.9722 8.33366 17.5347 9.73991 14.6875 12.5524C11.8403 15.3649 10.4167 18.785 10.4167 22.8128C10.4167 24.8962 10.842 26.8753 11.6927 28.7503C12.5434 30.6253 13.75 32.292 15.3125 33.7503L16.6667 35.0003V45.8337H12.5Z" fill="#F8623B"/>
</g>
</svg>
