<svg width="53" height="53" viewBox="0 0 53 53" fill="none" xmlns="http://www.w3.org/2000/svg">
<path d="M42.6283 11.7862C39.6051 10.4035 36.3944 9.39578 33.0431 8.83331C32.6213 9.55983 32.1525 10.5441 31.8243 11.3175C28.2598 10.8019 24.721 10.8019 21.2056 11.3175C20.8775 10.5441 20.3853 9.55983 19.9869 8.83331C16.6122 9.39578 13.4015 10.4035 10.3994 11.7862C4.3295 20.7387 2.689 29.4801 3.50926 38.1045C7.5402 41.0341 11.4306 42.8151 15.253 43.9871C16.1904 42.7215 17.0341 41.3621 17.7606 39.9326C16.3779 39.417 15.0655 38.7843 13.8 38.0343C14.1281 37.8 14.4562 37.5423 14.7609 37.2844C22.4009 40.7764 30.6762 40.7764 38.2223 37.2844C38.5504 37.5423 38.8552 37.8 39.1833 38.0343C37.9177 38.7843 36.6053 39.417 35.2227 39.9326C35.9492 41.3621 36.7928 42.7215 37.7303 43.9871C41.5502 42.8151 45.4641 41.0341 49.474 38.1045C50.4816 28.1211 47.878 19.4498 42.6283 11.7862ZM18.8152 32.7847C16.5185 32.7847 14.6436 30.6989 14.6436 28.1445C14.6436 25.5899 16.4716 23.5042 18.8152 23.5042C21.1353 23.5042 23.0336 25.5899 22.9868 28.1445C22.9868 30.6989 21.1353 32.7847 18.8152 32.7847ZM34.215 32.7847C31.9181 32.7847 30.0408 30.6989 30.0408 28.1445C30.0408 25.5899 31.8713 23.5042 34.215 23.5042C36.5351 23.5042 38.4334 25.5899 38.3864 28.1445C38.3864 30.6989 36.5585 32.7847 34.215 32.7847Z" fill="black"/>
</svg>
