<svg width="53" height="53" viewBox="0 0 53 53" fill="none" xmlns="http://www.w3.org/2000/svg">
<path d="M26.5034 19.8747C22.8433 19.8747 19.8784 22.8407 19.8784 26.4997C19.8784 30.1596 22.8444 33.1247 26.5034 33.1247C30.1633 33.1247 33.1284 30.1587 33.1284 26.4997C33.1284 22.8398 30.1624 19.8747 26.5034 19.8747ZM26.5034 15.458C32.5993 15.458 37.5451 20.3983 37.5451 26.4997C37.5451 32.5958 32.6048 37.5414 26.5034 37.5414C20.4073 37.5414 15.4617 32.6011 15.4617 26.4997C15.4617 20.4037 20.402 15.458 26.5034 15.458ZM40.8576 14.9041C40.8576 16.4281 39.6192 17.6645 38.0972 17.6645C36.5732 17.6645 35.3368 16.4262 35.3368 14.9041C35.3368 13.382 36.575 12.1455 38.0972 12.1455C39.6172 12.1436 40.8576 13.382 40.8576 14.9041ZM26.5034 8.83305C21.0389 8.83305 20.1482 8.84751 17.6066 8.96069C15.875 9.04198 14.7143 9.27487 13.6358 9.69357C12.6774 10.0653 11.986 10.5091 11.2494 11.2458C10.5099 11.9852 10.0669 12.6747 9.69668 13.6336C9.27701 14.7145 9.04418 15.8735 8.96435 17.6027C8.85007 20.0408 8.83671 20.8929 8.83671 26.4997C8.83671 31.9642 8.85118 32.8549 8.96433 35.3962C9.04566 37.1271 9.27886 38.2896 9.69655 39.3655C10.0692 40.3252 10.514 41.0182 11.2471 41.7514C11.9894 42.4927 12.681 42.9372 13.6308 43.3038C14.7224 43.7258 15.8824 43.959 17.6063 44.0387C20.0444 44.1529 20.8965 44.1664 26.5034 44.1664C31.9679 44.1664 32.8586 44.1518 35.3999 44.0387C37.127 43.9577 38.2904 43.7238 39.3692 43.3065C40.3263 42.9348 41.0214 42.4885 41.7551 41.756C42.4975 41.0124 42.9411 40.3226 43.3082 39.3705C43.7291 38.2829 43.9627 37.1214 44.0424 35.3969C44.1566 32.9587 44.1701 32.1065 44.1701 26.4997C44.1701 21.0352 44.1555 20.1446 44.0424 17.6032C43.9612 15.8756 43.7273 14.7105 43.3095 13.6322C42.9387 12.6764 42.4933 11.9829 41.7573 11.2458C41.0166 10.5051 40.3289 10.0629 39.3694 9.69302C38.2893 9.2737 37.1286 9.04054 35.4004 8.96071C32.9624 8.84641 32.1102 8.83305 26.5034 8.83305ZM26.5034 4.41638C32.5026 4.41638 33.2516 4.43847 35.6073 4.54888C37.9572 4.65747 39.5602 5.02919 40.968 5.57576C42.4235 6.13705 43.6529 6.89524 44.8803 8.12269C46.1059 9.35017 46.8643 10.5832 47.4274 12.0351C47.972 13.4411 48.3438 15.0458 48.4543 17.3959C48.5591 19.7514 48.5868 20.5004 48.5868 26.4997C48.5868 32.4991 48.5647 33.2479 48.4543 35.6036C48.3456 37.9537 47.972 39.5565 47.4274 40.9643C46.866 42.42 46.1059 43.6492 44.8803 44.8768C43.6529 46.1024 42.418 46.8606 40.968 47.4237C39.5602 47.9685 37.9572 48.3401 35.6073 48.4506C33.2516 48.5554 32.5026 48.5831 26.5034 48.5831C20.5041 48.5831 19.7551 48.561 17.3995 48.4506C15.0495 48.3419 13.4484 47.9685 12.0388 47.4237C10.585 46.8623 9.35381 46.1024 8.12636 44.8768C6.8989 43.6492 6.14254 42.4145 5.57942 40.9643C5.03286 39.5565 4.66296 37.9537 4.55254 35.6036C4.44765 33.2479 4.42004 32.4991 4.42004 26.4997C4.42004 20.5004 4.44213 19.7514 4.55254 17.3959C4.66111 15.044 5.03286 13.4429 5.57942 12.0351C6.14069 10.5813 6.8989 9.35017 8.12636 8.12269C9.35381 6.89524 10.5868 6.13888 12.0388 5.57576C13.4466 5.02919 15.0476 4.6593 17.3995 4.54888C19.7551 4.44399 20.5041 4.41638 26.5034 4.41638Z" fill="black"/>
</svg>
