<svg width="134" height="134" viewBox="0 0 134 134" fill="none" xmlns="http://www.w3.org/2000/svg">
<g clip-path="url(#clip0_62_12555)">
<path d="M67 0C30.0551 0 0 30.0551 0 67C0 103.945 30.0551 134 67 134C103.945 134 134 103.945 134 67C134 30.0551 103.945 0 67 0ZM91.589 77.4576L62.4887 93.3924C60.6741 94.4142 58.6753 94.9222 56.6764 94.9222C54.5938 94.9222 52.5057 94.3695 50.6073 93.264C46.8833 91.0865 44.6667 87.2173 44.6667 82.9069V51.0875C44.6667 46.7772 46.8833 42.9079 50.6073 40.7304C54.3203 38.5585 58.7869 38.5194 62.5445 40.6355L91.5332 56.5089C95.4192 58.692 97.7028 62.6003 97.7028 66.9944C97.7028 71.3885 95.4192 75.2968 91.5834 77.452L91.589 77.4576ZM86.5417 67C86.5417 67.4858 86.2178 67.6644 86.1732 67.6979L57.0728 83.6383C56.9668 83.6942 56.6429 83.8728 56.2521 83.6328C55.8389 83.3927 55.8389 83.0353 55.8389 82.9181V51.0987C55.8389 50.9814 55.8389 50.6241 56.2521 50.384C56.4028 50.2947 56.5424 50.2668 56.6653 50.2668C56.8663 50.2668 57.0282 50.3561 57.1287 50.4119L86.1173 66.2909C86.2234 66.3523 86.5417 66.531 86.5417 67.0168V67Z" fill="url(#paint0_linear_62_12555)"/>
</g>
<defs>
<linearGradient id="paint0_linear_62_12555" x1="67" y1="0" x2="67" y2="134" gradientUnits="userSpaceOnUse">
<stop stop-color="#EF0B9A"/>
<stop offset="1" stop-color="#95268F"/>
</linearGradient>
<clipPath id="clip0_62_12555">
<rect width="134" height="134" fill="white"/>
</clipPath>
</defs>
</svg>
