<svg width="100" height="100" viewBox="0 0 100 100" fill="none" xmlns="http://www.w3.org/2000/svg">
<g clip-path="url(#clip0_0_47)">
<path d="M50 0C22.4292 0 0 22.4292 0 50C0 77.5708 22.4292 100 50 100C77.5708 100 100 77.5708 100 50C100 22.4292 77.5708 0 50 0ZM68.35 57.8042L46.6333 69.6958C45.2792 70.4583 43.7875 70.8375 42.2958 70.8375C40.7417 70.8375 39.1833 70.425 37.7667 69.6C34.9875 67.975 33.3333 65.0875 33.3333 61.8708V38.125C33.3333 34.9083 34.9875 32.0208 37.7667 30.3958C40.5375 28.775 43.8708 28.7458 46.675 30.325L68.3083 42.1708C71.2083 43.8 72.9125 46.7167 72.9125 49.9958C72.9125 53.275 71.2083 56.1917 68.3458 57.8L68.35 57.8042ZM64.5833 50C64.5833 50.3625 64.3417 50.4958 64.3083 50.5208L42.5917 62.4167C42.5125 62.4583 42.2708 62.5917 41.9792 62.4125C41.6708 62.2333 41.6708 61.9667 41.6708 61.8792V38.1333C41.6708 38.0458 41.6708 37.7792 41.9792 37.6C42.0917 37.5333 42.1958 37.5125 42.2875 37.5125C42.4375 37.5125 42.5583 37.5792 42.6333 37.6208L64.2667 49.4708C64.3458 49.5167 64.5833 49.65 64.5833 50.0125V50Z" fill="white"/>
</g>
<defs>
<clipPath id="clip0_0_47">
<rect width="100" height="100" fill="white"/>
</clipPath>
</defs>
</svg>
