<svg width="50" height="50" viewBox="0 0 50 50" fill="none" xmlns="http://www.w3.org/2000/svg">
<mask id="mask0_0_398" style="mask-type:alpha" maskUnits="userSpaceOnUse" x="0" y="0" width="50" height="50">
<rect width="50" height="50" fill="white"/>
</mask>
<g mask="url(#mask0_0_398)">
<path d="M20.3659 37.3333C20.9562 37.3333 21.5204 37.2292 22.0586 37.0208C22.5968 36.8125 23.1263 36.5694 23.6471 36.2917C23.8555 36.1528 24.0725 36.0312 24.2982 35.9271C24.5239 35.8229 24.7582 35.7708 25.0013 35.7708C25.2791 35.7708 25.7305 35.9444 26.3555 36.2917C26.8763 36.5694 27.4058 36.8125 27.944 37.0208C28.4822 37.2292 29.0464 37.3333 29.6367 37.3333C31.3728 37.3333 32.7704 36.717 33.8294 35.4844C34.8885 34.2517 35.418 32.6111 35.418 30.5625C35.418 28.0625 34.5586 26.1354 32.8398 24.7812C31.1211 23.4271 28.6471 22.75 25.418 22.75H24.5846C21.3555 22.75 18.8815 23.4271 17.1628 24.7812C15.444 26.1354 14.5846 28.0625 14.5846 30.5625C14.5846 32.6111 15.1141 34.2517 16.1732 35.4844C17.2322 36.717 18.6298 37.3333 20.3659 37.3333ZM20.3138 34.2083C19.4805 34.2083 18.8294 33.8872 18.3607 33.2448C17.8919 32.6024 17.6576 31.7083 17.6576 30.5625C17.6576 28.9653 18.2218 27.7847 19.3503 27.0208C20.4787 26.2569 22.2235 25.875 24.5846 25.875H25.3659C27.727 25.875 29.4631 26.2569 30.5742 27.0208C31.6853 27.7847 32.2409 28.9653 32.2409 30.5625C32.2409 31.7083 32.0152 32.6024 31.5638 33.2448C31.1124 33.8872 30.4701 34.2083 29.6367 34.2083C29.2201 34.2083 28.6298 34 27.8659 33.5833C27.4145 33.3056 26.9544 33.0799 26.4857 32.9062C26.0169 32.7326 25.5221 32.6458 25.0013 32.6458C24.4805 32.6458 23.977 32.7326 23.4909 32.9062C23.0048 33.0799 22.536 33.3056 22.0846 33.5833C21.8069 33.7569 21.5204 33.9045 21.2253 34.026C20.9301 34.1476 20.6263 34.2083 20.3138 34.2083ZM13.0742 22.125C15.1576 21.2917 16.8242 20.3715 18.0742 19.3646C19.3242 18.3576 20.5048 16.9861 21.6159 15.25L19.0117 13.5833C18.1089 15.0069 17.1628 16.1007 16.1732 16.8646C15.1836 17.6285 13.7513 18.4097 11.8763 19.2083L13.0742 22.125ZM36.8763 22.125L38.0742 19.2083C36.2339 18.4444 34.8277 17.6806 33.8555 16.9167C32.8832 16.1528 31.9284 15.0417 30.9909 13.5833L28.3867 15.25C29.4978 16.9861 30.6784 18.349 31.9284 19.3385C33.1784 20.3281 34.8277 21.2569 36.8763 22.125ZM25.0013 45.6667C22.1194 45.6667 19.411 45.1198 16.8763 44.026C14.3416 42.9323 12.1367 41.4479 10.2617 39.5729C8.38672 37.6979 6.90234 35.4931 5.80859 32.9583C4.71484 30.4236 4.16797 27.7153 4.16797 24.8333C4.16797 21.9514 4.71484 19.2431 5.80859 16.7083C6.90234 14.1736 8.38672 11.9687 10.2617 10.0937C12.1367 8.21875 14.3416 6.73438 16.8763 5.64062C19.411 4.54687 22.1194 4 25.0013 4C27.8832 4 30.5916 4.54687 33.1263 5.64062C35.661 6.73438 37.8659 8.21875 39.7409 10.0937C41.6159 11.9687 43.1003 14.1736 44.194 16.7083C45.2878 19.2431 45.8346 21.9514 45.8346 24.8333C45.8346 27.7153 45.2878 30.4236 44.194 32.9583C43.1003 35.4931 41.6159 37.6979 39.7409 39.5729C37.8659 41.4479 35.661 42.9323 33.1263 44.026C30.5916 45.1198 27.8832 45.6667 25.0013 45.6667ZM25.0013 41.5C29.6541 41.5 33.5951 39.8854 36.8242 36.6562C40.0534 33.4271 41.668 29.4861 41.668 24.8333C41.668 20.1806 40.0534 16.2396 36.8242 13.0104C33.5951 9.78125 29.6541 8.16667 25.0013 8.16667C20.3485 8.16667 16.4076 9.78125 13.1784 13.0104C9.94922 16.2396 8.33464 20.1806 8.33464 24.8333C8.33464 29.4861 9.94922 33.4271 13.1784 36.6562C16.4076 39.8854 20.3485 41.5 25.0013 41.5Z" fill="white"/>
</g>
</svg>
