<svg width="50" height="50" viewBox="0 0 50 50" fill="none" xmlns="http://www.w3.org/2000/svg">
<mask id="mask0_0_411" style="mask-type:alpha" maskUnits="userSpaceOnUse" x="0" y="0" width="50" height="50">
<rect width="50" height="50" fill="white"/>
</mask>
<g mask="url(#mask0_0_411)">
<path d="M27.0833 47.9167V35.4167L22.7083 31.25L20.625 40.4167L6.25 37.5L7.08333 33.3333L17.0833 35.4167L20.4167 18.5417L16.6667 20V27.0833H12.5V17.2917L20.7292 13.75C21.9444 13.2292 22.8385 12.8906 23.4115 12.7344C23.9844 12.5781 24.5139 12.5 25 12.5C25.7292 12.5 26.4062 12.691 27.0312 13.0729C27.6562 13.4549 28.1597 13.9583 28.5417 14.5833L30.625 17.9167C31.5278 19.375 32.7517 20.5729 34.2969 21.5104C35.842 22.4479 37.6042 22.9167 39.5833 22.9167V27.0833C37.2917 27.0833 35.1476 26.6059 33.151 25.651C31.1545 24.6962 29.4792 23.4375 28.125 21.875L26.875 28.125L31.25 32.2917V47.9167H27.0833ZM28.125 11.4583C26.9792 11.4583 25.9983 11.0503 25.1823 10.2344C24.3663 9.4184 23.9583 8.4375 23.9583 7.29167C23.9583 6.14583 24.3663 5.16493 25.1823 4.34896C25.9983 3.53299 26.9792 3.125 28.125 3.125C29.2708 3.125 30.2517 3.53299 31.0677 4.34896C31.8837 5.16493 32.2917 6.14583 32.2917 7.29167C32.2917 8.4375 31.8837 9.4184 31.0677 10.2344C30.2517 11.0503 29.2708 11.4583 28.125 11.4583Z" fill="white"/>
</g>
</svg>
