<svg width="50" height="50" viewBox="0 0 50 50" fill="none" xmlns="http://www.w3.org/2000/svg">
<mask id="mask0_0_372" style="mask-type:alpha" maskUnits="userSpaceOnUse" x="0" y="0" width="50" height="50">
<rect width="50" height="50" fill="#D9D9D9"/>
</mask>
<g mask="url(#mask0_0_372)">
<path d="M8.59375 27L2.34375 16.1667L16.0938 8.25H18.75C19.3056 9.91667 19.9653 11.375 20.7292 12.625C21.4931 13.875 22.9167 14.5 25 14.5C27.0833 14.5 28.5069 13.875 29.2708 12.625C30.0347 11.375 30.6944 9.91667 31.25 8.25H33.9063L47.6042 16.2188L41.4063 27L37.5 24.8646V34.8646L34.2188 37.7292C34.1146 37.7986 33.9757 37.8854 33.8021 37.9896C33.6285 38.0938 33.4722 38.1806 33.3333 38.25V17.7812L39.8438 21.375L41.9271 17.7292L33.9583 13.0938C33.125 14.7951 31.901 16.1493 30.2865 17.1562C28.6719 18.1632 26.9097 18.6667 25 18.6667C23.0903 18.6667 21.3281 18.1632 19.7135 17.1562C18.099 16.1493 16.875 14.7951 16.0417 13.0938L8.02083 17.7292L10.1563 21.375L16.6667 17.7812V30.125C15.9375 30.1944 15.2257 30.3073 14.5313 30.4635C13.8368 30.6198 13.1597 30.8368 12.5 31.1146V24.8646L8.59375 27ZM9.6875 42.3646L6.97917 39.1875L11.5104 35.3333C12.309 34.6389 13.2205 34.1094 14.2448 33.7448C15.2691 33.3802 16.3368 33.1979 17.4479 33.1979C18.559 33.1979 19.6181 33.3802 20.625 33.7448C21.6319 34.1094 22.5347 34.6389 23.3333 35.3333L29.375 40.4896C29.7917 40.8368 30.2865 41.1059 30.8594 41.2969C31.4323 41.4878 32.0139 41.5833 32.6042 41.5833C33.2292 41.5833 33.8108 41.4965 34.349 41.3229C34.8872 41.1493 35.3646 40.8715 35.7813 40.4896L40.3125 36.5833L43.0208 39.8125L38.4896 43.6667C37.691 44.3611 36.7882 44.8819 35.7813 45.2292C34.7743 45.5764 33.7153 45.75 32.6042 45.75C31.4931 45.75 30.4254 45.5764 29.401 45.2292C28.3767 44.8819 27.4653 44.3611 26.6667 43.6667L20.625 38.5104C20.2083 38.1632 19.7309 37.8941 19.1927 37.7031C18.6545 37.5122 18.0729 37.4167 17.4479 37.4167C16.8576 37.4167 16.276 37.5122 15.7031 37.7031C15.1302 37.8941 14.6354 38.1632 14.2188 38.5104L9.6875 42.3646Z" fill="white"/>
</g>
</svg>
