<svg width="50" height="50" viewBox="0 0 50 50" fill="none" xmlns="http://www.w3.org/2000/svg">
<mask id="mask0_0_386" style="mask-type:alpha" maskUnits="userSpaceOnUse" x="0" y="0" width="50" height="50">
<rect width="50" height="50" fill="#D9D9D9"/>
</mask>
<g mask="url(#mask0_0_386)">
<path d="M12.4987 48.6667C11.3529 48.6667 10.372 48.2587 9.55599 47.4427C8.74002 46.6267 8.33203 45.6458 8.33203 44.5V11.1667C8.33203 10.0208 8.74002 9.03993 9.55599 8.22396C10.372 7.40799 11.3529 7 12.4987 7H37.4987C38.6445 7 39.6254 7.40799 40.4414 8.22396C41.2574 9.03993 41.6654 10.0208 41.6654 11.1667V44.5C41.6654 45.6458 41.2574 46.6267 40.4414 47.4427C39.6254 48.2587 38.6445 48.6667 37.4987 48.6667H12.4987ZM12.4987 44.5H37.4987V11.1667H12.4987V44.5ZM24.9987 42.4167C27.8806 42.4167 30.3372 41.401 32.3685 39.3698C34.3997 37.3385 35.4154 34.8819 35.4154 32C35.4154 29.1181 34.3997 26.6615 32.3685 24.6302C30.3372 22.599 27.8806 21.5833 24.9987 21.5833C22.1168 21.5833 19.6602 22.599 17.6289 24.6302C15.5977 26.6615 14.582 29.1181 14.582 32C14.582 34.8819 15.5977 37.3385 17.6289 39.3698C19.6602 41.401 22.1168 42.4167 24.9987 42.4167ZM24.9987 38.875C24.0959 38.875 23.2192 38.7101 22.3685 38.3802C21.5178 38.0503 20.7626 37.5556 20.1029 36.8958L29.8945 27.1042C30.5543 27.7639 31.049 28.5191 31.3789 29.3698C31.7088 30.2205 31.8737 31.0972 31.8737 32C31.8737 33.9097 31.2053 35.533 29.8685 36.8698C28.5317 38.2066 26.9084 38.875 24.9987 38.875ZM16.6654 17.4167C17.2556 17.4167 17.7504 17.217 18.1497 16.8177C18.549 16.4184 18.7487 15.9236 18.7487 15.3333C18.7487 14.7431 18.549 14.2483 18.1497 13.849C17.7504 13.4497 17.2556 13.25 16.6654 13.25C16.0751 13.25 15.5803 13.4497 15.181 13.849C14.7817 14.2483 14.582 14.7431 14.582 15.3333C14.582 15.9236 14.7817 16.4184 15.181 16.8177C15.5803 17.217 16.0751 17.4167 16.6654 17.4167ZM22.9154 17.4167C23.5056 17.4167 24.0004 17.217 24.3997 16.8177C24.799 16.4184 24.9987 15.9236 24.9987 15.3333C24.9987 14.7431 24.799 14.2483 24.3997 13.849C24.0004 13.4497 23.5056 13.25 22.9154 13.25C22.3251 13.25 21.8303 13.4497 21.431 13.849C21.0317 14.2483 20.832 14.7431 20.832 15.3333C20.832 15.9236 21.0317 16.4184 21.431 16.8177C21.8303 17.217 22.3251 17.4167 22.9154 17.4167Z" fill="white"/>
</g>
</svg>
