<svg width="34" height="34" viewBox="0 0 34 34" fill="none" xmlns="http://www.w3.org/2000/svg">
<path d="M2.03433 15.838H31.6774L34.0023 17.0005L31.6774 18.163H2.03433L0 17.0005L2.03433 15.838Z" fill="#03045E"/>
<path d="M29.3828 25.491L3.7111 10.6695L2.27887 8.50027L4.87357 8.65602L30.5452 23.4776L31.7258 25.5014L29.3828 25.491Z" fill="#03045E"/>
<path d="M23.4787 30.544L8.65715 4.87235L8.50141 2.27765L10.6706 3.70988L25.4921 29.3815L25.5026 31.7245L23.4787 30.544Z" fill="#03045E"/>
<path d="M15.8392 31.968L15.8392 2.32492L17.0017 -3.05176e-05L18.1642 2.32492V31.968L17.0017 34.0023L15.8392 31.968Z" fill="#03045E"/>
<path d="M8.5113 29.3815L23.3328 3.70988L25.502 2.27765L25.3463 4.87235L10.5248 30.544L8.50087 31.7245L8.5113 29.3815Z" fill="#03045E"/>
<path d="M3.45831 23.4775L29.13 8.65593L31.7247 8.50019L30.2924 10.6694L4.62079 25.4909L2.27777 25.5014L3.45831 23.4775Z" fill="#03045E"/>
</svg>
