<svg width="53" height="53" viewBox="0 0 53 53" fill="none" xmlns="http://www.w3.org/2000/svg">
<path d="M26.5022 44.1665C36.2593 44.1665 44.1689 36.2569 44.1689 26.4998C44.1689 16.7428 36.2593 8.83317 26.5022 8.83317C16.7451 8.83317 8.83549 16.7428 8.83549 26.4998C8.83549 36.2569 16.7451 44.1665 26.5022 44.1665ZM26.5022 48.5832C14.3059 48.5832 4.41882 38.696 4.41882 26.4998C4.41882 14.3035 14.3059 4.4165 26.5022 4.4165C38.6984 4.4165 48.5855 14.3035 48.5855 26.4998C48.5855 38.696 38.6984 48.5832 26.5022 48.5832ZM19.6346 29.0854L14.118 27.3635C12.9257 26.9978 12.9187 26.1774 14.385 25.588L35.8788 17.2857C37.1254 16.7753 37.8343 17.4201 37.4301 19.0277L33.7692 36.2998C33.5143 37.5285 32.7732 37.8211 31.7468 37.254L26.1135 33.0858L23.488 35.6196C23.2182 35.88 22.9987 36.1037 22.5853 36.1598C22.1717 36.2156 21.8308 36.0933 21.5829 35.4076L19.6625 29.0677L19.6346 29.0854Z" fill="black"/>
</svg>
