<svg width="36" height="36" viewBox="0 0 36 36" fill="none" xmlns="http://www.w3.org/2000/svg">
<mask id="mask0_0_1976" style="mask-type:alpha" maskUnits="userSpaceOnUse" x="0" y="0" width="36" height="36">
<rect width="36" height="36" fill="#D9D9D9"/>
</mask>
<g mask="url(#mask0_0_1976)">
<path d="M18 33C17.35 33 16.7625 32.8438 16.2375 32.5312C15.7125 32.2188 15.3 31.8 15 31.275C14.175 31.275 13.4688 30.9813 12.8813 30.3938C12.2938 29.8063 12 29.1 12 28.275V22.95C10.525 21.975 9.34375 20.6875 8.45625 19.0875C7.56875 17.4875 7.125 15.75 7.125 13.875C7.125 10.85 8.18125 8.28125 10.2937 6.16875C12.4062 4.05625 14.975 3 18 3C21.025 3 23.5938 4.05625 25.7062 6.16875C27.8188 8.28125 28.875 10.85 28.875 13.875C28.875 15.8 28.4312 17.55 27.5438 19.125C26.6562 20.7 25.475 21.975 24 22.95V28.275C24 29.1 23.7063 29.8063 23.1188 30.3938C22.5313 30.9813 21.825 31.275 21 31.275C20.7 31.8 20.2875 32.2188 19.7625 32.5312C19.2375 32.8438 18.65 33 18 33ZM15 28.275H21V26.925H15V28.275ZM15 25.425H21V24H15V25.425ZM14.7 21H16.875V16.95L13.575 13.65L15.15 12.075L18 14.925L20.85 12.075L22.425 13.65L19.125 16.95V21H21.3C22.65 20.35 23.75 19.3938 24.6 18.1313C25.45 16.8688 25.875 15.45 25.875 13.875C25.875 11.675 25.1125 9.8125 23.5875 8.2875C22.0625 6.7625 20.2 6 18 6C15.8 6 13.9375 6.7625 12.4125 8.2875C10.8875 9.8125 10.125 11.675 10.125 13.875C10.125 15.45 10.55 16.8688 11.4 18.1313C12.25 19.3938 13.35 20.35 14.7 21Z" fill="white"/>
</g>
</svg>
