<svg width="36" height="36" viewBox="0 0 36 36" fill="none" xmlns="http://www.w3.org/2000/svg">
<mask id="mask0_0_1989" style="mask-type:alpha" maskUnits="userSpaceOnUse" x="0" y="0" width="36" height="36">
<rect width="36" height="36" fill="white"/>
</mask>
<g mask="url(#mask0_0_1989)">
<path d="M7.49976 31.4998C6.67476 31.4998 5.96851 31.206 5.38101 30.6185C4.79351 30.031 4.49976 29.3248 4.49976 28.4998V7.49976C4.49976 6.67476 4.79351 5.96851 5.38101 5.38101C5.96851 4.79351 6.67476 4.49976 7.49976 4.49976H28.4998C29.3248 4.49976 30.031 4.79351 30.6185 5.38101C31.206 5.96851 31.4998 6.67476 31.4998 7.49976V28.4998C31.4998 29.3248 31.206 30.031 30.6185 30.6185C30.031 31.206 29.3248 31.4998 28.4998 31.4998H7.49976ZM14.9998 28.4998V19.4998H7.49976V28.4998H14.9998ZM17.9998 28.4998H28.4998V19.4998H17.9998V28.4998ZM7.49976 16.4998H28.4998V7.49976H7.49976V16.4998Z" fill="white"/>
</g>
</svg>
