<svg width="36" height="36" viewBox="0 0 36 36" fill="none" xmlns="http://www.w3.org/2000/svg">
<g clip-path="url(#clip0_0_1814)">
<path d="M28.5 4.5H22.23C21.6 2.76 19.95 1.5 18 1.5C16.05 1.5 14.4 2.76 13.77 4.5H7.5C5.85 4.5 4.5 5.85 4.5 7.5V28.5C4.5 30.15 5.85 31.5 7.5 31.5H28.5C30.15 31.5 31.5 30.15 31.5 28.5V7.5C31.5 5.85 30.15 4.5 28.5 4.5ZM18 4.125C18.33 4.125 18.615 4.275 18.825 4.5C19.005 4.695 19.125 4.965 19.125 5.25C19.125 5.865 18.615 6.375 18 6.375C17.385 6.375 16.875 5.865 16.875 5.25C16.875 4.965 16.995 4.695 17.175 4.5C17.385 4.275 17.67 4.125 18 4.125ZM28.5 28.5H7.5V7.5H28.5V28.5ZM18 9C15.525 9 13.5 11.025 13.5 13.5C13.5 15.975 15.525 18 18 18C20.475 18 22.5 15.975 22.5 13.5C22.5 11.025 20.475 9 18 9ZM18 15C17.175 15 16.5 14.325 16.5 13.5C16.5 12.675 17.175 12 18 12C18.825 12 19.5 12.675 19.5 13.5C19.5 14.325 18.825 15 18 15ZM9 24.705V27H27V24.705C27 20.955 21.045 19.335 18 19.335C14.955 19.335 9 20.94 9 24.705ZM12.465 24C13.5 23.16 16.035 22.32 18 22.32C19.965 22.32 22.515 23.16 23.535 24H12.465Z" fill="white"/>
</g>
<defs>
<clipPath id="clip0_0_1814">
<rect width="36" height="36" fill="white"/>
</clipPath>
</defs>
</svg>
